<svg width="208" height="39" viewBox="0 0 208 39" fill="none" xmlns="http://www.w3.org/2000/svg">
<rect x="104" y="34" width="103" height="5" fill="#2D6F95"/>
<rect x="1" y="34" width="103" height="5" fill="#454545"/>
<path d="M6.33 22.13V29H2.25V8.99H10.71C13.01 8.99 14.81 9.52 16.11 10.58C17.41 11.64 18.06 13.25 18.06 15.41C18.06 17.57 17.41 19.23 16.11 20.39C14.81 21.55 13.01 22.13 10.71 22.13H6.33ZM6.33 18.86H10.2C10.88 18.86 11.45 18.78 11.91 18.62C12.37 18.44 12.73 18.2 12.99 17.9C13.25 17.58 13.43 17.23 13.53 16.85C13.65 16.47 13.71 16.06 13.71 15.62C13.71 15.16 13.65 14.73 13.53 14.33C13.43 13.93 13.25 13.57 12.99 13.25C12.73 12.93 12.37 12.69 11.91 12.53C11.45 12.35 10.88 12.26 10.2 12.26H6.33V18.86ZM17.6766 29L25.3566 8.99H29.7666L37.0866 29H32.8866L26.3466 10.37L28.1466 10.22L21.6066 29H17.6766ZM21.7266 24.11L22.6866 20.99H32.0166L32.3466 24.11H21.7266ZM39.7793 29V8.99H47.3093C50.6293 8.99 53.0793 9.83 54.6593 11.51C56.2593 13.19 57.0593 15.68 57.0593 18.98C57.0593 22.28 56.2593 24.78 54.6593 26.48C53.0793 28.16 50.6293 29 47.3093 29H39.7793ZM43.8593 25.73H46.8593C48.8793 25.73 50.3893 25.2 51.3893 24.14C52.3893 23.06 52.8893 21.34 52.8893 18.98C52.8893 16.64 52.3893 14.93 51.3893 13.85C50.3893 12.77 48.8793 12.23 46.8593 12.23H43.8593V25.73ZM60.7266 29V8.99H64.9266L71.9466 19.07L69.6366 19.25L76.9866 8.99H81.0666V29H77.0166V12.23L77.9466 13.31L70.7166 23.12L63.6966 13.28L64.6566 12.44V29H60.7266ZM85.5703 29V8.99H89.6503V29H85.5703ZM94.1543 29V8.99H97.8143L108.734 23.93L107.564 26.33V8.99H111.344V29H108.044L96.8543 14L97.9643 12.17V29H94.1543Z" fill="#2D6F95"/>
<path d="M124.242 29V8.99H131.772C135.092 8.99 137.542 9.83 139.122 11.51C140.722 13.19 141.522 15.68 141.522 18.98C141.522 22.28 140.722 24.78 139.122 26.48C137.542 28.16 135.092 29 131.772 29H124.242ZM128.322 25.73H131.322C133.342 25.73 134.852 25.2 135.852 24.14C136.852 23.06 137.352 21.34 137.352 18.98C137.352 16.64 136.852 14.93 135.852 13.85C134.852 12.77 133.342 12.23 131.322 12.23H128.322V25.73ZM145.189 29V8.99H158.599V12.26H149.269V17.33H157.369V20.63H149.269V25.73H158.599V29H145.189ZM162.855 29V8.99H167.055L174.075 19.07L171.765 19.25L179.115 8.99H183.195V29H179.145V12.23L180.075 13.31L172.845 23.12L165.825 13.28L166.785 12.44V29H162.855ZM196.399 29.36C194.419 29.36 192.719 28.99 191.299 28.25C189.879 27.49 188.789 26.35 188.029 24.83C187.269 23.29 186.889 21.35 186.889 19.01C186.889 15.59 187.709 13.01 189.349 11.27C191.009 9.51 193.359 8.63 196.399 8.63C198.399 8.63 200.109 9.01 201.529 9.77C202.949 10.53 204.039 11.67 204.799 13.19C205.579 14.71 205.969 16.65 205.969 19.01C205.969 22.41 205.139 24.99 203.479 26.75C201.839 28.49 199.479 29.36 196.399 29.36ZM196.399 25.97C197.599 25.97 198.589 25.74 199.369 25.28C200.169 24.8 200.769 24.05 201.169 23.03C201.569 22.01 201.769 20.66 201.769 18.98C201.769 17.3 201.569 15.96 201.169 14.96C200.769 13.94 200.169 13.2 199.369 12.74C198.589 12.28 197.599 12.05 196.399 12.05C195.239 12.05 194.259 12.29 193.459 12.77C192.679 13.23 192.089 13.97 191.689 14.99C191.289 15.99 191.089 17.33 191.089 19.01C191.089 20.69 191.289 22.04 191.689 23.06C192.089 24.08 192.679 24.82 193.459 25.28C194.259 25.74 195.239 25.97 196.399 25.97Z" fill="#454545"/>
</svg>
