<svg width="37" height="45" viewBox="0 0 37 45" fill="none" xmlns="http://www.w3.org/2000/svg">
<mask id="mask0_117_116" style="mask-type:alpha" maskUnits="userSpaceOnUse" x="-8" y="0" width="45" height="45">
<rect x="-8" width="45" height="45" fill="#D9D9D9"/>
</mask>
<g mask="url(#mask0_117_116)">
<mask id="mask1_117_116" style="mask-type:alpha" maskUnits="userSpaceOnUse" x="0" y="0" width="30" height="45">
<path fill-rule="evenodd" clip-rule="evenodd" d="M15.2031 29.5312C23.358 29.5312 29.9688 22.9205 29.9688 14.7656C29.9688 6.6108 23.358 0 15.2031 0C7.0483 0 0.4375 6.6108 0.4375 14.7656C0.4375 15.1864 0.455097 15.603 0.489594 16.0148C0.455204 16.2967 0.4375 16.5838 0.4375 16.875V37.9688C0.4375 41.852 3.5855 45 7.46875 45C11.352 45 14.5 41.852 14.5 37.9688V29.5148C14.733 29.5257 14.9674 29.5312 15.2031 29.5312Z" fill="#D9D9D9"/>
</mask>
<g mask="url(#mask1_117_116)">
<rect x="0.9375" y="0.5" width="13.0625" height="13.0625" rx="0.5" stroke="#578CAA"/>
<rect x="15.9062" width="14.0625" height="14.0625" rx="1" fill="#535353" fill-opacity="0.7"/>
<rect x="0.4375" y="15.4688" width="14.0625" height="14.0625" rx="1" fill="#535353" fill-opacity="0.9"/>
<rect x="16.4062" y="15.9688" width="13.0625" height="13.0625" rx="0.5" stroke="#578CAA"/>
<rect x="0.4375" y="30.9375" width="14.0625" height="14.0625" rx="1" fill="#535353"/>
</g>
<path d="M1.5 13.5C1.5 6.75033 6.80127 1 13.5 1V0C6.19873 0 0.5 6.24967 0.5 13.5H1.5Z" fill="#578CAA"/>
<path d="M29 16C29 19.9087 27.9017 23.023 25.8865 25.1567C23.8752 27.2863 20.8932 28.5 17 28.5V29.5C21.1068 29.5 24.3748 28.2137 26.6135 25.8433C28.8483 23.477 30 20.0913 30 16H29Z" fill="#578CAA"/>
</g>
</svg>
