<svg width="152" height="45" viewBox="0 0 152 45" fill="none" xmlns="http://www.w3.org/2000/svg">
<mask id="mask0_1_14" style="mask-type:alpha" maskUnits="userSpaceOnUse" x="0" y="0" width="152" height="45">
<rect width="152" height="45" fill="#D9D9D9"/>
</mask>
<g mask="url(#mask0_1_14)">
<path d="M50.1431 31.1261C49.7754 31.1261 49.278 31.0819 48.6508 30.9934C48.0452 30.927 47.4179 30.7832 46.7691 30.5619C46.1419 30.3407 45.5903 30.0199 45.1145 29.5996L46.0553 28.2721V37H42V17.3208C42 16.6128 42.2055 16.0155 42.6164 15.5288C43.049 15.042 43.6113 14.6549 44.3034 14.3673C45.0172 14.0575 45.8066 13.8363 46.6717 13.7035C47.5585 13.5487 48.4777 13.4712 49.4294 13.4712C50.9866 13.4712 52.3708 13.7478 53.582 14.3009C54.7932 14.854 55.7557 15.7942 56.4694 17.1217C57.1832 18.4491 57.5401 20.2522 57.5401 22.531C57.5401 24.2566 57.2481 25.7721 56.6641 27.0774C56.0801 28.3606 55.2366 29.3562 54.1336 30.0642C53.0305 30.7721 51.7004 31.1261 50.1431 31.1261ZM49.105 27.708C50.0566 27.708 50.846 27.5199 51.4733 27.1438C52.1221 26.7677 52.5979 26.1925 52.9007 25.4181C53.2252 24.6217 53.3874 23.6261 53.3874 22.4314C53.3874 21.3695 53.2684 20.4292 53.0305 19.6106C52.8142 18.792 52.4033 18.1615 51.7977 17.719C51.2137 17.2544 50.381 17.0221 49.2996 17.0221C48.2398 17.0221 47.4287 17.1327 46.8664 17.354C46.3257 17.5752 46.0553 17.885 46.0553 18.2832V26.8783C46.5312 27.1438 47.0394 27.354 47.5801 27.5089C48.1209 27.6416 48.6291 27.708 49.105 27.708Z" fill="#2D6F95"/>
<path d="M67.267 31.1593C66.3586 31.1593 65.4935 31.0708 64.6716 30.8938C63.8497 30.7168 63.1144 30.4292 62.4655 30.031C61.8167 29.6106 61.2976 29.0465 60.9083 28.3385C60.5406 27.6084 60.3567 26.7013 60.3567 25.6173C60.3567 24.4889 60.5838 23.5376 61.038 22.7633C61.4922 21.9668 62.1519 21.3695 63.017 20.9712C63.9038 20.5509 64.9852 20.3407 66.2613 20.3407C67.0399 20.3407 67.7645 20.4181 68.435 20.573C69.1054 20.7058 69.711 20.8938 70.2518 21.1372C70.7925 21.3805 71.2359 21.646 71.5819 21.9336L71.8739 24.2898C71.4197 23.9801 70.8357 23.7367 70.122 23.5597C69.4299 23.3606 68.6729 23.2611 67.851 23.2611C66.7047 23.2611 65.8504 23.4491 65.288 23.8252C64.7257 24.2013 64.4445 24.7876 64.4445 25.5841C64.4445 26.1372 64.5959 26.6018 64.8987 26.9779C65.2015 27.3319 65.5908 27.6084 66.0667 27.8075C66.5425 27.9845 67.0399 28.073 67.559 28.073C68.7486 28.073 69.6029 27.9956 70.122 27.8407C70.6627 27.6637 70.9331 27.2987 70.9331 26.7456V20.1416C70.9331 19.0575 70.5978 18.2721 69.9273 17.7854C69.2568 17.2766 68.316 17.0221 67.1048 17.0221C66.1748 17.0221 65.2231 17.1881 64.2499 17.5199C63.2766 17.8296 62.4871 18.2389 61.8815 18.7478V14.9314C62.4655 14.5553 63.3415 14.2235 64.5094 13.9358C65.6773 13.6482 66.9318 13.5044 68.2728 13.5044C68.8351 13.5044 69.4299 13.5597 70.0571 13.6704C70.6843 13.781 71.2791 13.958 71.8414 14.2013C72.4254 14.4447 72.9553 14.7876 73.4311 15.2301C73.907 15.6504 74.2855 16.1925 74.5666 16.8562C74.8478 17.4978 74.9884 18.2832 74.9884 19.2124V27.1438C74.9884 28.1836 74.664 29.0022 74.0151 29.5996C73.3663 30.1748 72.4687 30.573 71.3224 30.7942C70.1761 31.0376 68.8243 31.1593 67.267 31.1593Z" fill="#2D6F95"/>
<path d="M87.0703 31.1593C85.9456 31.1593 84.875 31.0265 83.8584 30.7611C82.8419 30.4956 81.9443 30.031 81.1657 29.3673C80.3871 28.7035 79.7706 27.7854 79.3165 26.6128C78.8839 25.4403 78.6676 23.9469 78.6676 22.1327C78.6676 19.4558 79.3056 17.3429 80.5817 15.7942C81.8578 14.2456 83.7935 13.4712 86.389 13.4712C86.7566 13.4712 87.2325 13.5155 87.8164 13.604C88.4004 13.6925 88.9952 13.8473 89.6008 14.0686C90.228 14.2677 90.7687 14.5885 91.2229 15.031L90.3145 16.3584V7H94.3699V26.7456C94.3699 27.4978 94.1536 28.1504 93.721 28.7035C93.3101 29.2566 92.7477 29.7212 92.034 30.0973C91.3203 30.4513 90.5308 30.7168 89.6657 30.8938C88.8005 31.0708 87.9354 31.1593 87.0703 31.1593ZM87.2 27.5752C88.0868 27.5752 88.8222 27.4646 89.4061 27.2434C90.0117 27.0221 90.3145 26.7013 90.3145 26.281V17.7854C89.8387 17.4978 89.3304 17.2876 88.7897 17.1549C88.249 17.0221 87.7299 16.9558 87.2325 16.9558C86.2376 16.9558 85.4157 17.1438 84.7668 17.5199C84.118 17.8739 83.6313 18.4491 83.3069 19.2456C82.9825 20.0199 82.8203 21.0155 82.8203 22.2323C82.8203 23.2942 82.95 24.2235 83.2096 25.0199C83.4691 25.8164 83.9125 26.4469 84.5397 26.9115C85.1886 27.354 86.0753 27.5752 87.2 27.5752Z" fill="#2D6F95"/>
<path d="M113.566 19.5111V30.6615H109.478V20.2412C109.478 19.8208 109.424 19.4226 109.316 19.0465C109.207 18.6482 109.024 18.3053 108.764 18.0177C108.504 17.708 108.148 17.4757 107.693 17.3208C107.239 17.1438 106.655 17.0553 105.942 17.0553C105.401 17.0553 104.871 17.1106 104.352 17.2212C103.854 17.3319 103.411 17.4757 103.022 17.6527V30.6615H98.9014V15.3296C99.3556 15.1084 99.8964 14.8872 100.524 14.6659C101.151 14.4447 101.832 14.2566 102.567 14.1018C103.303 13.9248 104.038 13.792 104.774 13.7035C105.531 13.5929 106.244 13.5376 106.915 13.5376C108.429 13.5376 109.672 13.7478 110.646 14.1681C111.619 14.5664 112.344 15.208 112.819 16.0929C113.317 16.9558 113.566 18.0951 113.566 19.5111ZM109.153 16.3252C109.845 15.7279 110.635 15.2301 111.522 14.8319C112.408 14.4115 113.338 14.0907 114.312 13.8695C115.285 13.6482 116.215 13.5376 117.102 13.5376C118.616 13.5376 119.859 13.7478 120.833 14.1681C121.806 14.5664 122.531 15.208 123.006 16.0929C123.504 16.9558 123.753 18.0951 123.753 19.5111V30.6615H119.665V20.2412C119.665 19.8208 119.611 19.4226 119.503 19.0465C119.394 18.6482 119.211 18.3053 118.951 18.0177C118.691 17.708 118.335 17.4757 117.88 17.3208C117.426 17.1438 116.842 17.0553 116.129 17.0553C115.588 17.0553 115.058 17.1327 114.539 17.2876C114.041 17.4425 113.598 17.6748 113.209 17.9845L109.153 16.3252Z" fill="#2D6F95"/>
<path d="M128.4 30.6615V14.1018H132.52L132.553 30.6615H128.4ZM128.303 11.4469V7.99558H132.618V11.4469H128.303Z" fill="#2D6F95"/>
<path d="M137.174 15.3296C137.628 15.1084 138.169 14.8872 138.796 14.6659C139.423 14.4447 140.104 14.2566 140.84 14.1018C141.575 13.9248 142.31 13.792 143.046 13.7035C143.803 13.5929 144.517 13.5376 145.187 13.5376C146.701 13.5376 147.955 13.7478 148.95 14.1681C149.967 14.5664 150.724 15.208 151.221 16.0929C151.74 16.9558 152 18.0951 152 19.5111V30.6615H147.912V20.2412C147.912 19.8208 147.858 19.4226 147.75 19.0465C147.642 18.6482 147.458 18.3053 147.198 18.0177C146.939 17.708 146.582 17.4757 146.128 17.3208C145.674 17.1438 145.09 17.0553 144.376 17.0553C143.835 17.0553 143.284 17.1106 142.721 17.2212C142.159 17.3319 141.683 17.4757 141.294 17.6527V30.6615H137.174V15.3296Z" fill="#2D6F95"/>
<mask id="mask1_1_14" style="mask-type:alpha" maskUnits="userSpaceOnUse" x="-8" y="0" width="45" height="45">
<rect x="-8" width="45" height="45" fill="#D9D9D9"/>
</mask>
<g mask="url(#mask1_1_14)">
<mask id="mask2_1_14" style="mask-type:alpha" maskUnits="userSpaceOnUse" x="0" y="0" width="30" height="45">
<path fill-rule="evenodd" clip-rule="evenodd" d="M15.2031 29.5312C23.358 29.5312 29.9688 22.9205 29.9688 14.7656C29.9688 6.6108 23.358 0 15.2031 0C7.0483 0 0.4375 6.6108 0.4375 14.7656C0.4375 15.1864 0.455097 15.603 0.489594 16.0148C0.455204 16.2967 0.4375 16.5838 0.4375 16.875V37.9688C0.4375 41.852 3.5855 45 7.46875 45C11.352 45 14.5 41.852 14.5 37.9688V29.5148C14.733 29.5257 14.9674 29.5312 15.2031 29.5312Z" fill="#D9D9D9"/>
</mask>
<g mask="url(#mask2_1_14)">
<rect x="0.9375" y="0.5" width="13.0625" height="13.0625" rx="0.5" stroke="#578CAA"/>
<rect x="15.9062" width="14.0625" height="14.0625" rx="1" fill="#535353" fill-opacity="0.7"/>
<rect x="0.4375" y="15.4688" width="14.0625" height="14.0625" rx="1" fill="#535353" fill-opacity="0.9"/>
<rect x="16.4062" y="15.9688" width="13.0625" height="13.0625" rx="0.5" stroke="#578CAA"/>
<rect x="0.4375" y="30.9375" width="14.0625" height="14.0625" rx="1" fill="#535353"/>
</g>
<path d="M1.5 13.5C1.5 6.75033 6.80127 1 13.5 1V0C6.19873 0 0.5 6.24967 0.5 13.5H1.5Z" fill="#578CAA"/>
<path d="M29 16C29 19.9087 27.9017 23.023 25.8865 25.1567C23.8752 27.2863 20.8932 28.5 17 28.5V29.5C21.1068 29.5 24.3748 28.2137 26.6135 25.8433C28.8483 23.477 30 20.0913 30 16H29Z" fill="#578CAA"/>
</g>
</g>
</svg>
